<svg width="512" height="512" viewBox="0 0 512 512" fill="none" xmlns="http://www.w3.org/2000/svg">
<rect width="512" height="512" rx="72" fill="#0D0D0C"/>
<path d="M279 352.025C279 355.187 280.15 358.062 282.45 360.075L351.737 429.362C358.925 436.55 371.575 431.375 371.575 421.312V275.262C371.575 272.1 371.287 269.225 371 266.35C371 266.062 371 265.487 371 265.2C368.7 243.925 361.8 222.362 348.287 208.275C335.637 195.625 319.25 189.875 303.15 189.3C297.112 189.012 291.362 189.587 285.612 190.737C279.287 191.887 273.537 194.475 268.075 197.637C264.337 199.937 260.025 201.087 255.138 200.8C242.775 200.225 233.287 189.3 233.287 176.937V116.275C233.287 111.387 230.412 107.075 225.812 105.35L156.237 79.7625C148.762 76.8875 140.712 82.6375 140.712 90.6875V287.625V329.312V345.412C140.712 351.737 145.887 356.912 152.212 356.912H193.612H221.5C227.825 356.912 233 351.737 233 345.412V247.95C233 235.587 242.2 224.95 254.562 224.087C268.075 223.225 279.287 233.862 279.287 247.087V352.025H279Z" fill="white"/>
</svg>
